# xmcd
#
# Track frame offsets:
#	150
#	9907
#	19322
#	30075
#	40255
#	52927
#	63022
#	74200
#	85652
#	96535
#	108885
#	120912
#	131402
#	141847
#
# Disc length: 2034 seconds
# Revision: 5
# Processed by: cddbd v1.5.2PL0 Copyright (c) Steve Scherf et al.
# Submitted via: dBpowerAMP V12.0
#
DISCID=ac07f00e
DTITLE=Various Artist - COUNTRY GREATEST
DYEAR=1993
DGENRE=Country
TTITLE0=DAVE DUDLEY - Cowboy Boots
TTITLE1=GEORGE JONES - The Race Is On
TTITLE2=WAYLON JENNINGS - Burnin' Memories
TTITLE3=HANK LOCLIN - Let Me Be The One
TTITLE4=PATSY CLINE - Just A Closer Walk With Thee
TTITLE5=GLEN CAMPBELL - Gentle On My Mind
TTITLE6=JOHNNY CASH - Oh, Lonesome Me
TTITLE7=WEBB PIERCE - Slowly
TTITLE8=THE GOOD BROTHERS - Live Fast Love Hard Die Young
TTITLE9=RANDY TRAVIS - I'll Take Any Willing Woman
TTITLE10=JIMMY C. NEWMAN - Cry Cry Darlin'
TTITLE11=SLEEPY LA BEEF - Blackland Farmer
TTITLE12=CHARLIE WALKER - Wild As A Wildcat
TTITLE13=JERRY LEE LEWIS - Will The Circel Be Unbroken
EXTD=
EXTT0=
EXTT1=
EXTT2=
EXTT3=
EXTT4=
EXTT5=
EXTT6=
EXTT7=
EXTT8=
EXTT9=
EXTT10=
EXTT11=
EXTT12=
EXTT13=
PLAYORDER=
